<svg width="296" height="99" fill="none" xmlns="http://www.w3.org/2000/svg"><g clip-path="url(#clip0_768_27211)"><path d="M272.433.12H24.351c-.904 0-1.798 0-2.7.004-.755.005-1.503.02-2.266.032-1.656.02-3.308.165-4.941.435a16.437 16.437 0 00-4.688 1.547 15.876 15.876 0 00-3.992 2.906A15.433 15.433 0 002.86 9.042a16.279 16.279 0 00-1.541 4.694 32.04 32.04 0 00-.442 4.936c-.023.757-.026 1.515-.038 2.271v57c.012.766.015 1.508.038 2.274a32.04 32.04 0 00.442 4.937 16.244 16.244 0 001.54 4.696 15.308 15.308 0 002.906 3.98 15.47 15.47 0 003.992 2.907 16.522 16.522 0 004.688 1.556c1.634.268 3.286.414 4.941.436.763.017 1.511.026 2.266.026.902.005 1.796.005 2.7.005h248.082c.887 0 1.787 0 2.674-.005.751 0 1.522-.01 2.273-.026a32.75 32.75 0 004.932-.436 16.78 16.78 0 004.706-1.556 15.493 15.493 0 003.988-2.906 15.786 15.786 0 002.914-3.981 16.296 16.296 0 001.526-4.696c.275-1.632.428-3.282.458-4.937.01-.766.01-1.508.01-2.273.019-.896.019-1.787.019-2.698v-51.61c0-.903 0-1.8-.019-2.693 0-.756 0-1.514-.01-2.27a33.35 33.35 0 00-.458-4.937 16.346 16.346 0 00-1.526-4.694 15.95 15.95 0 00-6.902-6.905 16.689 16.689 0 00-4.706-1.546 32.16 32.16 0 00-4.932-.436c-.751-.012-1.522-.026-2.273-.03-.887-.006-1.787-.006-2.674-.006z" fill="#A6A6A6"/><path d="M21.664 96.603c-.751 0-1.485-.01-2.23-.027a31.292 31.292 0 01-4.61-.402 14.507 14.507 0 01-4.085-1.351 13.33 13.33 0 01-3.445-2.507 13.121 13.121 0 01-2.517-3.444 14.11 14.11 0 01-1.339-4.086 30.613 30.613 0 01-.41-4.624c-.016-.52-.036-2.252-.036-2.252V20.944s.022-1.706.036-2.206c.019-1.547.155-3.09.408-4.617a14.192 14.192 0 011.34-4.099A13.251 13.251 0 017.28 6.575a13.724 13.724 0 013.458-2.522 14.359 14.359 0 014.077-1.341c1.53-.25 3.075-.385 4.625-.405l2.225-.03h253.43l2.252.032c1.535.018 3.067.152 4.582.4 1.433.244 2.822.7 4.121 1.352a13.791 13.791 0 015.955 5.967 14.183 14.183 0 011.32 4.066c.256 1.54.399 3.095.429 4.654.007.699.007 1.449.007 2.195.019.925.019 1.805.019 2.693v51.61c0 .896 0 1.77-.019 2.652 0 .802 0 1.537-.01 2.293a31.264 31.264 0 01-.421 4.57 14.133 14.133 0 01-1.332 4.119 13.52 13.52 0 01-2.504 3.417 13.364 13.364 0 01-3.451 2.521 14.452 14.452 0 01-4.114 1.356 30.935 30.935 0 01-4.609.402 95.23 95.23 0 01-2.213.027l-2.673.005-250.77-.005z" fill="#000"/><path d="M61.92 50.18a12.203 12.203 0 015.81-10.239 12.493 12.493 0 00-9.842-5.32c-4.14-.435-8.155 2.477-10.265 2.477-2.151 0-5.4-2.434-8.899-2.362a13.108 13.108 0 00-11.03 6.727c-4.77 8.257-1.212 20.392 3.357 27.067 2.285 3.268 4.957 6.919 8.452 6.79 3.42-.142 4.698-2.182 8.827-2.182 4.09 0 5.29 2.181 8.855 2.1 3.67-.06 5.983-3.284 8.189-6.583a27.03 27.03 0 003.744-7.626A11.793 11.793 0 0161.92 50.18zm-6.737-19.948a12.017 12.017 0 002.749-8.609 12.226 12.226 0 00-7.91 4.093 11.434 11.434 0 00-2.821 8.29 10.108 10.108 0 007.982-3.774zm49.974 36.814H93.485l-2.804 8.277h-4.944L96.793 44.7h5.137l11.056 30.623h-5.028l-2.801-8.277zm-10.463-3.82h9.252l-4.561-13.432h-.128l-4.564 13.433zm42.17.935c0 6.938-3.713 11.396-9.317 11.396a7.569 7.569 0 01-7.025-3.906h-.106v11.058h-4.583V52.996h4.436v3.714h.084a7.924 7.924 0 017.109-3.947c5.667 0 9.402 4.48 9.402 11.398zm-4.71 0c0-4.52-2.336-7.492-5.901-7.492-3.501 0-5.856 3.034-5.856 7.492 0 4.499 2.355 7.511 5.856 7.511 3.565 0 5.901-2.95 5.901-7.51zm29.284 0c0 6.938-3.714 11.396-9.318 11.396a7.573 7.573 0 01-7.025-3.906h-.106v11.058h-4.583V52.996h4.436v3.714h.085a7.914 7.914 0 017.109-3.947c5.666 0 9.402 4.48 9.402 11.398zm-4.711 0c0-4.52-2.336-7.492-5.9-7.492-3.502 0-5.857 3.034-5.857 7.492 0 4.499 2.355 7.511 5.857 7.511 3.564 0 5.9-2.95 5.9-7.511zm20.951 2.629c.34 3.038 3.29 5.031 7.321 5.031 3.863 0 6.642-1.993 6.642-4.732 0-2.377-1.676-3.8-5.645-4.775l-3.968-.956c-5.624-1.358-8.234-3.988-8.234-8.256 0-5.283 4.604-8.912 11.143-8.912 6.471 0 10.907 3.629 11.056 8.912h-4.626c-.277-3.056-2.804-4.9-6.495-4.9-3.692 0-6.218 1.866-6.218 4.582 0 2.165 1.613 3.44 5.56 4.415l3.374.828c6.283 1.486 8.894 4.01 8.894 8.489 0 5.73-4.564 9.317-11.822 9.317-6.791 0-11.377-3.504-11.673-9.042h4.691zm28.695-19.076v5.284h4.245v3.629h-4.245v12.308c0 1.912.85 2.803 2.716 2.803a14.361 14.361 0 001.508-.106v3.608a12.59 12.59 0 01-2.546.212c-4.52 0-6.283-1.698-6.283-6.028V56.627h-3.246v-3.63h3.246v-5.283h4.605zm6.704 16.446c0-7.024 4.137-11.438 10.589-11.438 6.473 0 10.592 4.414 10.592 11.439 0 7.044-4.097 11.439-10.592 11.439-6.493 0-10.589-4.395-10.589-11.44zm16.511 0c0-4.818-2.208-7.662-5.922-7.662-3.713 0-5.919 2.866-5.919 7.663 0 4.838 2.206 7.66 5.919 7.66 3.714 0 5.922-2.822 5.922-7.66zm8.448-11.164h4.371v3.8h.106a5.327 5.327 0 015.37-4.033 7.06 7.06 0 011.57.17v4.287a6.402 6.402 0 00-2.059-.277 4.613 4.613 0 00-3.569 1.47 4.625 4.625 0 00-1.206 3.667v13.243h-4.583V52.996zm32.547 15.769c-.616 4.053-4.563 6.835-9.614 6.835-6.495 0-10.526-4.352-10.526-11.333 0-7.003 4.053-11.545 10.334-11.545 6.177 0 10.061 4.243 10.061 11.012v1.57h-15.769v.278a5.823 5.823 0 001.576 4.517 5.815 5.815 0 004.43 1.807 5.052 5.052 0 005.156-3.14h4.352zm-15.492-6.663h11.162a5.374 5.374 0 00-3.317-5.264 5.368 5.368 0 00-2.159-.403 5.655 5.655 0 00-5.686 5.667zM94.12 21.648a6.51 6.51 0 016.923 7.313c0 4.7-2.54 7.403-6.924 7.403h-5.315V21.649h5.315zm-3.03 12.635h2.774a4.627 4.627 0 004.853-5.293 4.639 4.639 0 00-4.853-5.262h-2.775v10.555zm12.534-3.476a5.265 5.265 0 013.109-5.312 5.256 5.256 0 016.021 1.272 5.248 5.248 0 011.344 4.04 5.261 5.261 0 11-10.474 0zm8.22 0c0-2.407-1.081-3.815-2.979-3.815-1.905 0-2.977 1.408-2.977 3.815 0 2.426 1.072 3.823 2.977 3.823 1.898 0 2.979-1.406 2.979-3.823zm16.176 5.558h-2.273l-2.295-8.179h-.174l-2.285 8.179h-2.252L115.68 25.26h2.223l1.989 8.474h.164l2.283-8.474h2.103l2.283 8.474h.173l1.98-8.474h2.191l-3.049 11.105zm5.622-11.105h2.11v1.764h.164a3.325 3.325 0 013.314-1.979 3.61 3.61 0 013.844 4.13v7.19h-2.192v-6.64c0-1.784-.775-2.671-2.396-2.671a2.552 2.552 0 00-2.533 1.731 2.549 2.549 0 00-.119 1.083v6.497h-2.192V25.259zm12.923-4.336h2.192v15.44h-2.192v-15.44zm5.238 9.883a5.266 5.266 0 011.344-4.04 5.256 5.256 0 013.893-1.722 5.259 5.259 0 014.993 3.6c.231.696.315 1.432.245 2.162a5.261 5.261 0 01-10.233 2.165 5.261 5.261 0 01-.242-2.165zm8.22 0c0-2.407-1.082-3.815-2.98-3.815-1.905 0-2.976 1.408-2.976 3.815 0 2.427 1.072 3.823 2.976 3.823 1.898 0 2.98-1.406 2.98-3.823zm4.561 2.417c0-2 1.489-3.151 4.131-3.315l3.008-.174v-.958c0-1.173-.776-1.835-2.274-1.835-1.223 0-2.071.449-2.314 1.234h-2.122c.224-1.908 2.018-3.131 4.538-3.131 2.784 0 4.354 1.386 4.354 3.732v7.587h-2.11v-1.56h-.173a3.736 3.736 0 01-3.336 1.743 3.354 3.354 0 01-3.702-3.323zm7.139-.949v-.928l-2.712.173c-1.529.102-2.223.622-2.223 1.601 0 1 .867 1.582 2.059 1.582a2.617 2.617 0 002.876-2.428zm5.061-1.468c0-3.51 1.804-5.732 4.61-5.732a3.66 3.66 0 013.406 1.948h.163v-6.1h2.192v15.441h-2.1V34.61h-.173a3.859 3.859 0 01-3.488 1.937c-2.825 0-4.61-2.223-4.61-5.74zm2.264 0c0 2.355 1.111 3.773 2.968 3.773 1.847 0 2.988-1.438 2.988-3.764 0-2.314-1.153-3.772-2.988-3.772-1.845 0-2.968 1.427-2.968 3.763zm17.174 0a5.254 5.254 0 015.237-5.762 5.256 5.256 0 013.893 1.722 5.27 5.27 0 011.344 4.04 5.255 5.255 0 01-3.106 5.321 5.262 5.262 0 01-7.368-5.321zm8.219 0c0-2.407-1.081-3.815-2.979-3.815-1.905 0-2.976 1.408-2.976 3.815 0 2.426 1.071 3.823 2.976 3.823 1.898 0 2.979-1.406 2.979-3.823zm5.194-5.547h2.11v1.764h.164a3.325 3.325 0 013.314-1.979 3.61 3.61 0 013.844 4.13v7.19h-2.192v-6.64c0-1.784-.776-2.671-2.396-2.671a2.549 2.549 0 00-2.652 2.814v6.497h-2.192V25.259zm21.814-2.766v2.816h2.406v1.846h-2.406v5.71c0 1.163.479 1.673 1.57 1.673.28-.001.559-.018.836-.051v1.826a7.18 7.18 0 01-1.192.112c-2.437 0-3.408-.858-3.408-2.999v-6.271h-1.763V25.31h1.763v-2.816h2.194zm5.399-1.57h2.173v6.12h.173a3.421 3.421 0 013.386-1.99 3.658 3.658 0 013.825 4.14v7.17h-2.194v-6.629c0-1.774-.826-2.672-2.375-2.672a2.595 2.595 0 00-2.796 2.815v6.486h-2.192v-15.44zm22.334 12.442a4.507 4.507 0 01-4.812 3.213 5.042 5.042 0 01-4.957-3.569 5.042 5.042 0 01-.173-2.163 5.133 5.133 0 011.237-4.07 5.117 5.117 0 013.884-1.732c3.09 0 4.954 2.111 4.954 5.598v.765h-7.842v.123c-.034.408.017.818.15 1.204a2.95 2.95 0 001.617 1.74 2.94 2.94 0 001.191.237 2.66 2.66 0 002.642-1.346h2.109zm-7.709-3.579h5.609a2.668 2.668 0 00-.73-2.043 2.674 2.674 0 00-2.003-.834 2.844 2.844 0 00-2.667 1.77 2.835 2.835 0 00-.209 1.107z" fill="#fff"/></g><defs><clipPath id="clip0_768_27211"><path fill="#fff" transform="translate(.838 .12)" d="M0 0h295.094v98.641H0z"/></clipPath></defs></svg>